<?xml version="1.0" standalone="no"?>
<!DOCTYPE svg PUBLIC "-//W3C//DTD SVG 20010904//EN"
 "http://www.w3.org/TR/2001/REC-SVG-20010904/DTD/svg10.dtd">
<svg version="1.0" xmlns="http://www.w3.org/2000/svg"
 width="720.000000pt" height="720.000000pt" viewBox="0 0 720.000000 720.000000"
 preserveAspectRatio="xMidYMid meet">
<metadata>
Created by potrace 1.11, written by Peter Selinger 2001-2013
</metadata>
<g transform="translate(0.000000,720.000000) scale(0.100000,-0.100000)"
fill="#000000" stroke="none">
<path d="M3537 7175 c-1 -1 -65 -5 -142 -8 -690 -31 -1416 -301 -1974 -736
-555 -432 -966 -999 -1195 -1651 -80 -226 -150 -526 -171 -725 -3 -33 -8 -71
-10 -85 -17 -104 -23 -447 -11 -625 12 -171 48 -403 91 -580 240 -1009 931
-1884 1860 -2353 235 -118 457 -203 700 -267 133 -35 305 -71 379 -80 105 -13
140 -17 156 -20 84 -16 476 -23 638 -11 1613 122 2943 1302 3251 2886 11 58
23 125 26 150 3 25 8 56 10 70 4 26 10 79 21 198 8 95 8 438 0 522 -29 288
-41 364 -93 580 -43 181 -80 296 -150 475 -48 121 -179 400 -203 430 -4 6 -20
33 -36 60 -107 194 -299 449 -509 674 -51 54 -268 253 -345 314 -430 348 -984
605 -1545 716 -100 19 -133 25 -234 36 -30 4 -63 8 -73 10 -39 8 -434 25 -441
20z"/>
</g>
</svg>
